<mxfile host="app.diagrams.net" agent="Mozilla/5.0 (Windows NT 10.0; Win64; x64) AppleWebKit/537.36 (KHTML, like Gecko) Chrome/138.0.0.0 Safari/537.36" version="27.0.5">
  <diagram name="Page-1" id="JhV4FQaqtqY2nrtGhEP-">
    <mxGraphModel dx="1426" dy="791" grid="1" gridSize="10" guides="1" tooltips="1" connect="1" arrows="1" fold="1" page="1" pageScale="1" pageWidth="850" pageHeight="1100" math="0" shadow="0">
      <root>
        <mxCell id="0" />
        <mxCell id="1" parent="0" />
        <mxCell id="DPu90je1pEipuy8tJsbY-1" value="" style="shape=mxgraph.mockup.containers.marginRect;rectMarginTop=10;strokeColor=#666666;strokeWidth=1;dashed=0;rounded=1;arcSize=5;recursiveResize=0;html=1;whiteSpace=wrap;" vertex="1" parent="1">
          <mxGeometry x="60" y="163" width="400" height="137" as="geometry" />
        </mxCell>
        <mxCell id="DPu90je1pEipuy8tJsbY-2" value="Ml Models" style="shape=rect;strokeColor=none;fillColor=#008cff;strokeWidth=1;dashed=0;rounded=1;arcSize=20;fontColor=#ffffff;fontSize=17;spacing=2;spacingTop=-2;align=center;autosize=1;spacingLeft=4;resizeWidth=0;resizeHeight=0;perimeter=none;html=1;whiteSpace=wrap;" vertex="1" parent="DPu90je1pEipuy8tJsbY-1">
          <mxGeometry x="5" width="115" height="30" as="geometry" />
        </mxCell>
        <mxCell id="DPu90je1pEipuy8tJsbY-3" value="&lt;b&gt;&lt;font style=&quot;font-size: 20px;&quot;&gt;EBM&lt;/font&gt;&lt;/b&gt;" style="rounded=0;whiteSpace=wrap;html=1;" vertex="1" parent="DPu90je1pEipuy8tJsbY-1">
          <mxGeometry x="10" y="47" width="120" height="60" as="geometry" />
        </mxCell>
        <mxCell id="DPu90je1pEipuy8tJsbY-5" value="&lt;b style=&quot;forced-color-adjust: none; color: rgb(0, 0, 0); font-family: Helvetica; font-size: 12px; font-style: normal; font-variant-ligatures: normal; font-variant-caps: normal; letter-spacing: normal; orphans: 2; text-align: center; text-indent: 0px; text-transform: none; widows: 2; word-spacing: 0px; -webkit-text-stroke-width: 0px; white-space: normal; text-decoration-thickness: initial; text-decoration-style: initial; text-decoration-color: initial;&quot;&gt;&lt;font style=&quot;forced-color-adjust: none; font-size: 20px;&quot;&gt;TabNet&lt;/font&gt;&lt;/b&gt;" style="rounded=0;whiteSpace=wrap;html=1;" vertex="1" parent="DPu90je1pEipuy8tJsbY-1">
          <mxGeometry x="270" y="47" width="120" height="60" as="geometry" />
        </mxCell>
        <mxCell id="DPu90je1pEipuy8tJsbY-4" value="&lt;span style=&quot;font-size: 20px;&quot;&gt;&lt;b&gt;NGBoost&lt;/b&gt;&lt;/span&gt;" style="rounded=0;whiteSpace=wrap;html=1;" vertex="1" parent="DPu90je1pEipuy8tJsbY-1">
          <mxGeometry x="140" y="47" width="120" height="60" as="geometry" />
        </mxCell>
        <mxCell id="DPu90je1pEipuy8tJsbY-6" value="" style="shape=mxgraph.mockup.containers.marginRect;rectMarginTop=10;strokeColor=#666666;strokeWidth=1;dashed=0;rounded=1;arcSize=5;recursiveResize=0;html=1;whiteSpace=wrap;" vertex="1" parent="1">
          <mxGeometry x="40" y="449.38" width="400" height="130" as="geometry" />
        </mxCell>
        <mxCell id="DPu90je1pEipuy8tJsbY-7" value="Model Performance" style="shape=rect;strokeColor=none;fillColor=#008cff;strokeWidth=1;dashed=0;rounded=1;arcSize=20;fontColor=#ffffff;fontSize=17;spacing=2;spacingTop=-2;align=center;autosize=1;spacingLeft=4;resizeWidth=0;resizeHeight=0;perimeter=none;html=1;whiteSpace=wrap;" vertex="1" parent="DPu90je1pEipuy8tJsbY-6">
          <mxGeometry x="5" width="170" height="30" as="geometry" />
        </mxCell>
        <mxCell id="DPu90je1pEipuy8tJsbY-8" value="&lt;b&gt;&lt;font style=&quot;font-size: 20px;&quot;&gt;RMSE&lt;/font&gt;&lt;/b&gt;" style="rounded=0;whiteSpace=wrap;html=1;" vertex="1" parent="DPu90je1pEipuy8tJsbY-6">
          <mxGeometry x="10" y="47" width="120" height="60" as="geometry" />
        </mxCell>
        <mxCell id="DPu90je1pEipuy8tJsbY-9" value="&lt;b style=&quot;forced-color-adjust: none; color: rgb(0, 0, 0); font-family: Helvetica; font-size: 12px; font-style: normal; font-variant-ligatures: normal; font-variant-caps: normal; letter-spacing: normal; orphans: 2; text-align: center; text-indent: 0px; text-transform: none; widows: 2; word-spacing: 0px; -webkit-text-stroke-width: 0px; white-space: normal; text-decoration-thickness: initial; text-decoration-style: initial; text-decoration-color: initial;&quot;&gt;&lt;font style=&quot;forced-color-adjust: none; font-size: 20px;&quot;&gt;R&lt;sup&gt;2&lt;/sup&gt;&lt;/font&gt;&lt;/b&gt;" style="rounded=0;whiteSpace=wrap;html=1;" vertex="1" parent="DPu90je1pEipuy8tJsbY-6">
          <mxGeometry x="270" y="47" width="120" height="60" as="geometry" />
        </mxCell>
        <mxCell id="DPu90je1pEipuy8tJsbY-10" value="&lt;span style=&quot;font-size: 20px;&quot;&gt;&lt;b&gt;MAE&lt;/b&gt;&lt;/span&gt;" style="rounded=0;whiteSpace=wrap;html=1;" vertex="1" parent="DPu90je1pEipuy8tJsbY-6">
          <mxGeometry x="140" y="47" width="120" height="60" as="geometry" />
        </mxCell>
        <mxCell id="DPu90je1pEipuy8tJsbY-11" value="" style="shape=mxgraph.mockup.containers.marginRect;rectMarginTop=10;strokeColor=#666666;strokeWidth=1;dashed=0;rounded=1;arcSize=5;recursiveResize=0;html=1;whiteSpace=wrap;" vertex="1" parent="1">
          <mxGeometry x="40" y="600" width="670" height="130" as="geometry" />
        </mxCell>
        <mxCell id="DPu90je1pEipuy8tJsbY-12" value="Relationships between features and target" style="shape=rect;strokeColor=none;fillColor=#008cff;strokeWidth=1;dashed=0;rounded=1;arcSize=20;fontColor=#ffffff;fontSize=17;spacing=2;spacingTop=-2;align=center;autosize=1;spacingLeft=4;resizeWidth=0;resizeHeight=0;perimeter=none;html=1;whiteSpace=wrap;" vertex="1" parent="DPu90je1pEipuy8tJsbY-11">
          <mxGeometry x="10" width="340" height="30" as="geometry" />
        </mxCell>
        <mxCell id="DPu90je1pEipuy8tJsbY-13" value="&lt;b&gt;&lt;font style=&quot;font-size: 20px;&quot;&gt;Pearson Correlation&lt;/font&gt;&lt;/b&gt;" style="rounded=0;whiteSpace=wrap;html=1;" vertex="1" parent="DPu90je1pEipuy8tJsbY-11">
          <mxGeometry x="10" y="47" width="200" height="60" as="geometry" />
        </mxCell>
        <mxCell id="DPu90je1pEipuy8tJsbY-14" value="&lt;b style=&quot;forced-color-adjust: none; color: rgb(0, 0, 0); font-family: Helvetica; font-size: 12px; font-style: normal; font-variant-ligatures: normal; font-variant-caps: normal; letter-spacing: normal; orphans: 2; text-align: center; text-indent: 0px; text-transform: none; widows: 2; word-spacing: 0px; -webkit-text-stroke-width: 0px; white-space: normal; text-decoration-thickness: initial; text-decoration-style: initial; text-decoration-color: initial;&quot;&gt;&lt;font style=&quot;forced-color-adjust: none; font-size: 20px;&quot;&gt;Multivariate Linear Regression&lt;/font&gt;&lt;/b&gt;" style="rounded=0;whiteSpace=wrap;html=1;" vertex="1" parent="DPu90je1pEipuy8tJsbY-11">
          <mxGeometry x="450" y="47" width="210" height="60" as="geometry" />
        </mxCell>
        <mxCell id="DPu90je1pEipuy8tJsbY-15" value="&lt;span style=&quot;font-size: 20px;&quot;&gt;&lt;b&gt;Spearman Correlation&lt;/b&gt;&lt;/span&gt;" style="rounded=0;whiteSpace=wrap;html=1;" vertex="1" parent="DPu90je1pEipuy8tJsbY-11">
          <mxGeometry x="220" y="47" width="220" height="60" as="geometry" />
        </mxCell>
        <mxCell id="DPu90je1pEipuy8tJsbY-17" value="" style="html=1;verticalLabelPosition=bottom;align=center;labelBackgroundColor=#ffffff;verticalAlign=top;strokeWidth=2;strokeColor=#0080F0;shadow=0;dashed=0;shape=mxgraph.ios7.icons.data;" vertex="1" parent="1">
          <mxGeometry x="70" y="330" width="90" height="110" as="geometry" />
        </mxCell>
        <mxCell id="DPu90je1pEipuy8tJsbY-18" value="&lt;font style=&quot;font-size: 18px;&quot;&gt;-- 80% training&lt;/font&gt;" style="text;html=1;align=center;verticalAlign=middle;whiteSpace=wrap;rounded=0;" vertex="1" parent="1">
          <mxGeometry x="175" y="350" width="130" height="30" as="geometry" />
        </mxCell>
        <mxCell id="DPu90je1pEipuy8tJsbY-19" value="&lt;font style=&quot;font-size: 18px;&quot;&gt;-- 20% test&lt;/font&gt;" style="text;html=1;align=center;verticalAlign=middle;whiteSpace=wrap;rounded=0;" vertex="1" parent="1">
          <mxGeometry x="160" y="390" width="130" height="30" as="geometry" />
        </mxCell>
        <mxCell id="DPu90je1pEipuy8tJsbY-21" value="" style="endArrow=none;dashed=1;html=1;rounded=0;strokeWidth=3;" edge="1" parent="1">
          <mxGeometry width="50" height="50" relative="1" as="geometry">
            <mxPoint x="40" y="140" as="sourcePoint" />
            <mxPoint x="520" y="140" as="targetPoint" />
          </mxGeometry>
        </mxCell>
        <mxCell id="DPu90je1pEipuy8tJsbY-22" value="" style="endArrow=none;dashed=1;html=1;rounded=0;strokeWidth=3;" edge="1" parent="1">
          <mxGeometry width="50" height="50" relative="1" as="geometry">
            <mxPoint x="40" y="320" as="sourcePoint" />
            <mxPoint x="40" y="140" as="targetPoint" />
          </mxGeometry>
        </mxCell>
        <mxCell id="DPu90je1pEipuy8tJsbY-23" value="" style="endArrow=none;dashed=1;html=1;rounded=0;strokeWidth=3;" edge="1" parent="1">
          <mxGeometry width="50" height="50" relative="1" as="geometry">
            <mxPoint x="519" y="292" as="sourcePoint" />
            <mxPoint x="519" y="322" as="targetPoint" />
          </mxGeometry>
        </mxCell>
        <mxCell id="DPu90je1pEipuy8tJsbY-24" value="" style="endArrow=none;dashed=1;html=1;rounded=0;strokeWidth=3;" edge="1" parent="1">
          <mxGeometry width="50" height="50" relative="1" as="geometry">
            <mxPoint x="40" y="320" as="sourcePoint" />
            <mxPoint x="525" y="320" as="targetPoint" />
          </mxGeometry>
        </mxCell>
        <mxCell id="DPu90je1pEipuy8tJsbY-25" value="" style="endArrow=none;dashed=1;html=1;rounded=0;strokeWidth=3;" edge="1" parent="1">
          <mxGeometry width="50" height="50" relative="1" as="geometry">
            <mxPoint x="518" y="139" as="sourcePoint" />
            <mxPoint x="518" y="189" as="targetPoint" />
          </mxGeometry>
        </mxCell>
        <mxCell id="DPu90je1pEipuy8tJsbY-26" value="" style="shape=mxgraph.mockup.containers.marginRect;rectMarginTop=10;strokeColor=#666666;strokeWidth=1;dashed=0;rounded=1;arcSize=5;recursiveResize=0;html=1;whiteSpace=wrap;" vertex="1" parent="1">
          <mxGeometry x="480" y="173" width="240" height="137" as="geometry" />
        </mxCell>
        <mxCell id="DPu90je1pEipuy8tJsbY-27" value="Benchmarking" style="shape=rect;strokeColor=none;fillColor=#008cff;strokeWidth=1;dashed=0;rounded=1;arcSize=20;fontColor=#ffffff;fontSize=17;spacing=2;spacingTop=-2;align=center;autosize=1;spacingLeft=4;resizeWidth=0;resizeHeight=0;perimeter=none;html=1;whiteSpace=wrap;" vertex="1" parent="DPu90je1pEipuy8tJsbY-26">
          <mxGeometry x="10" width="142" height="30" as="geometry" />
        </mxCell>
        <mxCell id="DPu90je1pEipuy8tJsbY-31" value="&lt;p style=&quot;margin-top: 0px;&quot;&gt;&lt;font style=&quot;font-size: 21px;&quot;&gt;&lt;b&gt;Random Forest&lt;br&gt;&lt;/b&gt;&lt;/font&gt;&lt;span style=&quot;font-size: 33px; background-color: transparent; color: light-dark(rgb(0, 0, 0), rgb(255, 255, 255)); font-weight: normal;&quot;&gt;+&lt;br&gt;&lt;/span&gt;&lt;font style=&quot;font-size: 21px;&quot;&gt;&lt;b&gt;XGBoost&lt;/b&gt;&lt;/font&gt;&lt;/p&gt;" style="text;html=1;whiteSpace=wrap;overflow=hidden;rounded=0;align=center;" vertex="1" parent="DPu90je1pEipuy8tJsbY-26">
          <mxGeometry x="35" y="27" width="180" height="110" as="geometry" />
        </mxCell>
        <mxCell id="DPu90je1pEipuy8tJsbY-32" value="&lt;font style=&quot;font-size: 17px;&quot;&gt;&lt;i style=&quot;&quot;&gt;Preprocessing&lt;/i&gt;&lt;/font&gt;" style="swimlane;horizontal=0;whiteSpace=wrap;html=1;rotation=90;" vertex="1" parent="1">
          <mxGeometry x="404.68" y="250" width="105" height="290.62" as="geometry" />
        </mxCell>
        <mxCell id="DPu90je1pEipuy8tJsbY-33" value="&lt;b style=&quot;forced-color-adjust: none; color: rgb(0, 0, 0); font-family: Helvetica; font-style: normal; font-variant-ligatures: normal; font-variant-caps: normal; letter-spacing: normal; orphans: 2; text-indent: 0px; text-transform: none; widows: 2; word-spacing: 0px; -webkit-text-stroke-width: 0px; white-space: normal; text-decoration-thickness: initial; text-decoration-style: initial; text-decoration-color: initial;&quot;&gt;&lt;font style=&quot;font-size: 15px;&quot;&gt;Categorical &amp;gt;&amp;gt; One-hot encoding&lt;/font&gt;&lt;/b&gt;&lt;div&gt;&lt;b style=&quot;forced-color-adjust: none; color: rgb(0, 0, 0); font-family: Helvetica; font-style: normal; font-variant-ligatures: normal; font-variant-caps: normal; letter-spacing: normal; orphans: 2; text-indent: 0px; text-transform: none; widows: 2; word-spacing: 0px; -webkit-text-stroke-width: 0px; white-space: normal; text-decoration-thickness: initial; text-decoration-style: initial; text-decoration-color: initial;&quot;&gt;&lt;font style=&quot;font-size: 15px;&quot;&gt;Numerical &amp;gt;&amp;gt; StandScaler&lt;/font&gt;&lt;/b&gt;&lt;/div&gt;" style="text;whiteSpace=wrap;html=1;align=center;" vertex="1" parent="DPu90je1pEipuy8tJsbY-32">
          <mxGeometry x="-84.68" y="122.82" width="279.38" height="50" as="geometry" />
        </mxCell>
        <mxCell id="DPu90je1pEipuy8tJsbY-34" value="" style="endArrow=none;dashed=1;html=1;dashPattern=1 3;strokeWidth=5;rounded=0;" edge="1" parent="1">
          <mxGeometry width="50" height="50" relative="1" as="geometry">
            <mxPoint x="760" y="440" as="sourcePoint" />
            <mxPoint x="710" y="240" as="targetPoint" />
            <Array as="points">
              <mxPoint x="760" y="240" />
            </Array>
          </mxGeometry>
        </mxCell>
        <mxCell id="DPu90je1pEipuy8tJsbY-35" value="&lt;h1 style=&quot;margin-top: 0px;&quot;&gt;&lt;font style=&quot;font-size: 19px;&quot;&gt;&lt;i&gt;Interpretability&lt;/i&gt;&lt;/font&gt;&lt;/h1&gt;&lt;p data-pm-slice=&quot;1 1 []&quot;&gt;&lt;i&gt;SHAP (SHapley Additive exPlanations) values were computed for both Random Forest and XGBoost models&lt;/i&gt;&lt;/p&gt;" style="text;html=1;whiteSpace=wrap;overflow=hidden;rounded=0;" vertex="1" parent="1">
          <mxGeometry x="570" y="480" width="180" height="120" as="geometry" />
        </mxCell>
        <mxCell id="DPu90je1pEipuy8tJsbY-37" value="" style="endArrow=none;dashed=1;html=1;dashPattern=1 3;strokeWidth=5;rounded=0;" edge="1" parent="1">
          <mxGeometry width="50" height="50" relative="1" as="geometry">
            <mxPoint x="760" y="440" as="sourcePoint" />
            <mxPoint x="710" y="240" as="targetPoint" />
            <Array as="points">
              <mxPoint x="760" y="240" />
            </Array>
          </mxGeometry>
        </mxCell>
        <mxCell id="DPu90je1pEipuy8tJsbY-38" value="" style="endArrow=none;dashed=1;html=1;dashPattern=1 3;strokeWidth=5;rounded=0;" edge="1" parent="1">
          <mxGeometry width="50" height="50" relative="1" as="geometry">
            <mxPoint x="760" y="440" as="sourcePoint" />
            <mxPoint x="710" y="240" as="targetPoint" />
            <Array as="points">
              <mxPoint x="760" y="240" />
            </Array>
          </mxGeometry>
        </mxCell>
        <mxCell id="DPu90je1pEipuy8tJsbY-39" value="" style="endArrow=none;dashed=1;html=1;dashPattern=1 3;strokeWidth=5;rounded=0;" edge="1" parent="1">
          <mxGeometry width="50" height="50" relative="1" as="geometry">
            <mxPoint x="660" y="440" as="sourcePoint" />
            <mxPoint x="760" y="440" as="targetPoint" />
          </mxGeometry>
        </mxCell>
        <mxCell id="DPu90je1pEipuy8tJsbY-40" value="" style="endArrow=none;dashed=1;html=1;dashPattern=1 3;strokeWidth=5;rounded=0;exitX=0.5;exitY=0;exitDx=0;exitDy=0;" edge="1" parent="1" source="DPu90je1pEipuy8tJsbY-35">
          <mxGeometry width="50" height="50" relative="1" as="geometry">
            <mxPoint x="660" y="420" as="sourcePoint" />
            <mxPoint x="660" y="440" as="targetPoint" />
          </mxGeometry>
        </mxCell>
        <mxCell id="DPu90je1pEipuy8tJsbY-41" value="&lt;font style=&quot;font-size: 23px;&quot;&gt;Methodology&lt;/font&gt;" style="swimlane;whiteSpace=wrap;html=1;" vertex="1" parent="1">
          <mxGeometry x="10" y="90" width="790" height="660" as="geometry" />
        </mxCell>
      </root>
    </mxGraphModel>
  </diagram>
</mxfile>
